<svg width="23" height="22" viewBox="0 0 23 22" fill="none" xmlns="http://www.w3.org/2000/svg">
<path d="M12.2671 6.91481L13.4944 5.68754L12.2671 4.46028C11.9282 4.12138 11.3787 4.12138 11.0398 4.46028C10.7009 4.79918 10.7009 5.34864 11.0398 5.68754L12.2671 6.91481Z" fill="white"/>
<path d="M13.4944 5.68754L16.5625 8.7557L18.7102 6.60799C19.5575 5.76074 19.5575 4.38708 18.7102 3.53983C17.863 2.69258 16.4893 2.69258 15.6421 3.53983L13.4944 5.68754Z" fill="white"/>
<path d="M16.5625 8.7557L15.3353 9.98297L16.5625 11.2102C16.9014 11.5491 17.4509 11.5491 17.7898 11.2102C18.1287 10.8713 18.1287 10.3219 17.7898 9.98297L16.5625 8.7557Z" fill="white"/>
<path d="M16.5625 8.7557L13.4944 5.68754L12.2671 6.91481L15.3353 9.98297L16.5625 8.7557Z" fill="white"/>
<path d="M13.4944 5.68754L16.5625 8.75571M13.4944 5.68754L15.6421 3.53983C16.4893 2.69258 17.863 2.69258 18.7102 3.53983V3.53983C19.5575 4.38708 19.5575 5.76074 18.7102 6.60799L16.5625 8.75571M13.4944 5.68754L12.2671 6.91481M13.4944 5.68754L12.2671 4.46028C11.9282 4.12138 11.3787 4.12138 11.0398 4.46028V4.46028C10.7009 4.79918 10.7009 5.34864 11.0398 5.68754L12.2671 6.91481M16.5625 8.75571L15.3353 9.98297M16.5625 8.75571L17.7898 9.98297C18.1287 10.3219 18.1287 10.8713 17.7898 11.2102V11.2102C17.4509 11.5491 16.9014 11.5491 16.5625 11.2102L15.3353 9.98297M15.3353 9.98297L7.35805 17.9602C6.5108 18.8074 5.13714 18.8074 4.28989 17.9602V17.9602C3.44264 17.1129 3.44264 15.7393 4.28989 14.892L12.2671 6.91481M15.3353 9.98297L12.2671 6.91481" stroke="white"/>
</svg>
